HIERARCHY
ROOT Hips
{
  OFFSET -132.153 92.0252 103.103
  CHANNELS 6 Xposition Yposition Zposition Zrotation Xrotation Yrotation
  JOINT RightUpLeg
  {
    OFFSET -8.9458 -8.66707 0.101652
    CHANNELS 3 Zrotation Xrotation Yrotation
    JOINT RightLeg
    {
      OFFSET 0 -44.4227 1.3727
      CHANNELS 3 Zrotation Xrotation Yrotation
      JOINT RightFoot
      {
        OFFSET 0.253549 -42.0924 -1.46059
        CHANNELS 3 Zrotation Xrotation Yrotation
        JOINT RightToes
        {
          OFFSET 0.04 -4.41509 8.4991
          CHANNELS 3 Zrotation Xrotation Yrotation
          End Site
          {
            OFFSET -0.08 -0.137448 9.77979
          }
        }
      }
    }
  }
  JOINT Spine
  {
    OFFSET 0 11.8905 0
    CHANNELS 3 Zrotation Xrotation Yrotation
    JOINT Spine1
    {
      OFFSET 0 25.6574 0.127663
      CHANNELS 3 Zrotation Xrotation Yrotation
      JOINT HEad
      {
        OFFSET 0 8.73416 0.011341
        CHANNELS 3 Zrotation Xrotation Yrotation
        End Site
        {
          OFFSET -0.29 12.7742 2.51395
        }
      }
      JOINT LeftShoulder1
      {
        OFFSET 8.99 -0.362252 -0.22
        CHANNELS 3 Zrotation Xrotation Yrotation
        JOINT LeftArm
        {
          OFFSET 10.2827 -0.00338 0.322123
          CHANNELS 3 Zrotation Xrotation Yrotation
          JOINT LeftForeArm
          {
            OFFSET 32.7669 0.099144 -1.42434
            CHANNELS 3 Zrotation Xrotation Yrotation
            JOINT LeftHand
            {
              OFFSET 27.5643 0.085362 1.02216
              CHANNELS 3 Zrotation Xrotation Yrotation
              End Site
              {
                OFFSET 16.7443 -0.6 1.50291
              }
            }
          }
        }
      }
      JOINT RightShoulder
      {
        OFFSET -8.99 -0.362252 -0.22
        CHANNELS 3 Zrotation Xrotation Yrotation
        JOINT RightArm
        {
          OFFSET -10.2827 -0.00338 0.322123
          CHANNELS 3 Zrotation Xrotation Yrotation
          JOINT RightForeArm
          {
            OFFSET -32.8971 0.099144 -1.42434
            CHANNELS 3 Zrotation Xrotation Yrotation
            JOINT RightHand
            {
              OFFSET -27.4921 0.085362 1.02216
              CHANNELS 3 Zrotation Xrotation Yrotation
              End Site
              {
                OFFSET -16.6312 -0.6 1.50291
              }
            }
          }
        }
      }
    }
  }
  JOINT LeftUpLeg
  {
    OFFSET 8.9458 -8.66707 0.101652
    CHANNELS 3 Zrotation Xrotation Yrotation
    JOINT LeftLeg
    {
      OFFSET 0 -44.4227 1.3727
      CHANNELS 3 Zrotation Xrotation Yrotation
      JOINT LeftFoot
      {
        OFFSET -0.253549 -42.0924 -1.46059
        CHANNELS 3 Zrotation Xrotation Yrotation
        JOINT LeftToes
        {
          OFFSET -0.04 -4.41509 8.4991
          CHANNELS 3 Zrotation Xrotation Yrotation
          End Site
          {
            OFFSET 0.08 -0.047448 9.77979
          }
        }
      }
    }
  }
}
MOTION
Frames:	7
Frame Time:	0.0166667
-185.913 86.4285 17.1062 14.767 -17.985 70.3913 -10.4321 -11.2838 4.08131 11.1236 55.0907 -16.5305 11.2673 14.4918 -2.2011 -30.9893 -28.8339 -1.68699 1.36526 14.3806 -4.41895 7.86719 28.284 -11.166 0.0310666 -14.34 37.7883 -7.95139e-016 -1.59028e-015 -1.27222e-014 -18.175 -27.5538 -34.1972 9.08485 -3.32532 -27.9577 9.33864 10.4362 11.5961 27.531 5.11857 15.1698 32.3737 -15.4705 54.3155 2.7183 36.9947 132.352 -6.6628 11.6793 -38.2418 32.1214 -15.339 -4.88181 -11.2323 45.7664 23.09 -7.02575 15.9542 1.33105 -17.1315 -37.7447 -21.3167 
-186.94 87.2631 15.3774 14.8648 -17.3768 69.0856 -10.1717 -10.2049 3.69963 11.815 57.4699 -15.9297 12.3306 15.8794 -2.54758 -34.3457 -31.4137 -2.55318 1.27461 14.1988 -3.83552 7.07662 27.951 -9.77176 -0.555467 -12.7925 36.7844 -4.77083e-015 -3.18055e-015 -0 -28.3723 -32.3752 -32.8899 5.06737 3.41459 -41.2347 7.43982 10.3894 12.8492 31.1029 5.36569 14.16 23.6248 -9.62855 44.5172 -0.115182 28.8484 139.018 -1.27308 10.0748 -40.4648 31.0607 -14.4027 -4.64507 -12.6007 43.2899 24.9361 -6.88134 16.375 1.32401 -15.4677 -35.5677 -19.7302 
-188.028 88.2384 13.8592 14.8124 -16.3709 68.0635 -10.0699 -8.77201 3.79826 13.4211 59.4257 -17.792 12.0756 16.0685 -2.51359 -35.2666 -32.0648 -2.98825 1.16981 13.9731 -3.1376 6.06558 27.5554 -8.06627 -0.796817 -11.7776 35.2105 -7.95139e-016 5.56597e-015 -3.18055e-015 -36.1791 -36.3147 -29.4509 0.21883 12.0971 -52.1049 7.40532 10.303 11.394 34.0362 5.44056 13.0969 17.7647 -2.70038 35.3257 -1.97508 21.3481 144.261 3.59416 8.40705 -42.8619 29.6822 -13.5692 -3.7814 -12.8539 40.2342 25.1427 -7.07186 16.7007 1.38199 -13.2284 -32.516 -17.2173 
-189.208 89.2836 12.5395 14.5233 -14.99 67.8111 -10.1341 -7.09402 3.88741 16.1861 61.0485 -21.8292 10.7793 14.8389 -2.13673 -33.5325 -30.7402 -2.71386 1.07166 13.6909 -2.49587 5.03187 27.0488 -6.45619 -0.774841 -11.142 33.0215 1.59028e-015 -3.97569e-015 -0 -40.9565 -38.0073 -24.1381 -5.25874 19.785 -59.618 8.2752 10.0849 7.22372 36.4313 5.37724 12.0072 14.947 4.96808 26.8511 -3.19656 14.5336 147.788 6.5471 7.28496 -44.2189 27.8441 -13.3014 -2.40378 -11.6909 36.8636 23.2487 -7.95411 16.9863 1.58739 -10.638 -28.4576 -14.1665 
-190.507 90.2956 11.3511 14.0215 -13.374 68.4484 -10.1626 -5.21748 3.61338 19.2542 62.3465 -26.3594 9.65847 12.998 -1.77371 -30.4041 -28.3383 -1.81058 1.03466 13.3683 -1.99383 4.03507 26.4767 -5.11577 -0.346652 -10.6916 30.3427 -4.41391e-031 7.95139e-015 3.18055e-015 -43.7418 -37.3155 -17.9989 -9.97666 25.996 -64.6039 9.06909 9.76899 2.54809 38.3546 5.25399 11.0356 15.0569 11.8115 19.1383 -4.0164 9.02413 149.389 6.90701 7.22554 -43.2719 25.6121 -13.677 -0.983777 -9.58061 33.2698 19.7498 -9.72543 17.3226 1.99498 -8.05367 -23.5546 -11.2316 
-191.928 91.15 10.217 13.4244 -11.7225 69.6757 -9.95807 -3.15194 3.10874 21.7179 63.2494 -29.6829 9.57486 11.9763 -1.68036 -27.8728 -26.3318 -0.814763 1.16819 13.0358 -1.58794 3.01183 25.9529 -3.91314 0.647534 -10.3664 27.3032 -7.95139e-016 -2.38542e-015 -0 -45.9869 -35.2342 -12.1381 -12.2327 31.2426 -68.9124 9.49852 9.52199 -0.629532 39.7933 5.13032 10.2866 17.0823 15.7726 12.4956 -4.37276 5.8769 149.397 5.16109 8.01627 -40.1707 23.2392 -14.4304 0.0280666 -7.29497 29.5892 15.4705 -12.2471 17.7426 2.58892 -5.80655 -18.418 -8.93466 
-193.473 91.7598 9.10053 12.8597 -10.1488 70.9608 -9.50911 -0.926311 2.88326 23.28 63.5302 -30.8418 10.6432 12.8069 -1.93519 -27.4466 -26.016 -0.255288 1.39487 12.7284 -1.10752 1.84801 25.5663 -2.52947 2.19991 -10.2372 23.9144 -7.95139e-016 -5.56597e-015 3.18055e-015 -48.389 -32.4694 -7.15513 -11.679 35.4088 -73.7102 9.6243 9.40739 -2.04941 40.7607 5.00458 9.70922 19.3088 15.9834 7.58341 -4.13129 5.52839 148.586 2.54923 8.97278 -36.3121 20.9835 -15.2591 0.526939 -5.33611 26.2193 10.8792 -15.0005 18.2665 3.26968 -4.17467 -14.1303 -7.48959 
